<?xml version="1.0" encoding="UTF-8"?>
<svg xmlns="http://www.w3.org/2000/svg" xmlns:xlink="http://www.w3.org/1999/xlink" width="35px" height="35px" viewBox="0 0 35 35" version="1.1">
<g id="surface1">
<path style=" stroke:none;fill-rule:nonzero;fill:rgb(9.019608%,7.45098%,12.941176%);fill-opacity:1;" d="M 26.050781 15.726562 L 26.023438 15.660156 L 23.617188 9.378906 C 23.570312 9.253906 23.480469 9.152344 23.371094 9.078125 C 23.140625 8.9375 22.847656 8.953125 22.632812 9.121094 C 22.53125 9.203125 22.457031 9.316406 22.417969 9.445312 L 20.792969 14.417969 L 14.210938 14.417969 L 12.585938 9.445312 C 12.550781 9.316406 12.476562 9.203125 12.371094 9.117188 C 12.160156 8.953125 11.863281 8.9375 11.632812 9.078125 C 11.523438 9.148438 11.4375 9.253906 11.386719 9.378906 L 8.976562 15.65625 L 8.949219 15.722656 C 8.238281 17.582031 8.84375 19.6875 10.433594 20.886719 L 10.441406 20.894531 L 10.464844 20.910156 L 14.132812 23.65625 L 15.945312 25.03125 L 17.050781 25.863281 C 17.316406 26.066406 17.683594 26.066406 17.949219 25.863281 L 19.054688 25.03125 L 20.871094 23.65625 L 24.558594 20.894531 L 24.570312 20.886719 C 26.15625 19.6875 26.757812 17.582031 26.050781 15.726562 Z M 26.050781 15.726562 "/>
</g>
</svg>
